<mxfile host="www.draw.io" modified="2020-03-05T15:21:20.814Z" agent="Mozilla/5.0 (Windows NT 10.0; Win64; x64) AppleWebKit/537.36 (KHTML, like Gecko) Chrome/80.0.3987.122 Safari/537.36" etag="hepRHZV8KjKh4gn723bF" version="12.8.0" type="github">
  <diagram id="bUENe9qFBrZTFx8yJ8IE" name="Page-1">
    <mxGraphModel dx="1422" dy="772" grid="1" gridSize="10" guides="1" tooltips="1" connect="1" arrows="1" fold="1" page="1" pageScale="1" pageWidth="850" pageHeight="1100" math="0" shadow="0">
      <root>
        <mxCell id="0" />
        <mxCell id="1" parent="0" />
        <mxCell id="Kvada0GT9Uv07JdplmVL-34" value="" style="rounded=0;whiteSpace=wrap;html=1;strokeColor=#000000;fillColor=#FFFFFF;" parent="1" vertex="1">
          <mxGeometry y="600" width="840" height="480" as="geometry" />
        </mxCell>
        <mxCell id="Kvada0GT9Uv07JdplmVL-1" value="" style="rounded=0;whiteSpace=wrap;html=1;" parent="1" vertex="1">
          <mxGeometry x="100" y="120" width="740" height="200" as="geometry" />
        </mxCell>
        <mxCell id="Kvada0GT9Uv07JdplmVL-2" value="" style="rounded=0;whiteSpace=wrap;html=1;" parent="1" vertex="1">
          <mxGeometry x="100" y="320" width="740" height="230" as="geometry" />
        </mxCell>
        <mxCell id="Kvada0GT9Uv07JdplmVL-4" value="Open (Person Responsible" style="rounded=0;whiteSpace=wrap;html=1;" parent="1" vertex="1">
          <mxGeometry y="120" width="100" height="200" as="geometry" />
        </mxCell>
        <mxCell id="Kvada0GT9Uv07JdplmVL-6" value="Approval (Reg Interaction Approver Role)" style="rounded=0;whiteSpace=wrap;html=1;" parent="1" vertex="1">
          <mxGeometry y="320" width="100" height="230" as="geometry" />
        </mxCell>
        <mxCell id="Kvada0GT9Uv07JdplmVL-18" value="" style="edgeStyle=orthogonalEdgeStyle;rounded=0;orthogonalLoop=1;jettySize=auto;html=1;entryX=0;entryY=0.5;entryDx=0;entryDy=0;" parent="1" source="Kvada0GT9Uv07JdplmVL-10" target="Kvada0GT9Uv07JdplmVL-17" edge="1">
          <mxGeometry relative="1" as="geometry" />
        </mxCell>
        <mxCell id="Kvada0GT9Uv07JdplmVL-10" value="Fill Completion Notes" style="rounded=1;whiteSpace=wrap;html=1;" parent="1" vertex="1">
          <mxGeometry x="260" y="200" width="140" height="70" as="geometry" />
        </mxCell>
        <mxCell id="Kvada0GT9Uv07JdplmVL-22" style="edgeStyle=orthogonalEdgeStyle;rounded=0;orthogonalLoop=1;jettySize=auto;html=1;exitX=1;exitY=0.5;exitDx=0;exitDy=0;entryX=0;entryY=0.5;entryDx=0;entryDy=0;entryPerimeter=0;" parent="1" source="Kvada0GT9Uv07JdplmVL-27" target="Kvada0GT9Uv07JdplmVL-20" edge="1">
          <mxGeometry relative="1" as="geometry" />
        </mxCell>
        <mxCell id="Kvada0GT9Uv07JdplmVL-29" value="" style="edgeStyle=orthogonalEdgeStyle;rounded=0;orthogonalLoop=1;jettySize=auto;html=1;entryX=1;entryY=0.5;entryDx=0;entryDy=0;" parent="1" source="Kvada0GT9Uv07JdplmVL-17" target="Kvada0GT9Uv07JdplmVL-10" edge="1">
          <mxGeometry relative="1" as="geometry">
            <mxPoint x="425" y="335" as="targetPoint" />
          </mxGeometry>
        </mxCell>
        <mxCell id="Kvada0GT9Uv07JdplmVL-17" value="Fill Approver Notes" style="rounded=1;whiteSpace=wrap;html=1;" parent="1" vertex="1">
          <mxGeometry x="400" y="415" width="140" height="70" as="geometry" />
        </mxCell>
        <mxCell id="Kvada0GT9Uv07JdplmVL-13" value="Audit Owner" style="rounded=0;whiteSpace=wrap;html=1;" parent="1" vertex="1">
          <mxGeometry y="40" width="100" height="80" as="geometry" />
        </mxCell>
        <mxCell id="Kvada0GT9Uv07JdplmVL-14" value="" style="rounded=0;whiteSpace=wrap;html=1;" parent="1" vertex="1">
          <mxGeometry x="100" y="40" width="220" height="80" as="geometry" />
        </mxCell>
        <mxCell id="Kvada0GT9Uv07JdplmVL-16" style="edgeStyle=orthogonalEdgeStyle;rounded=0;orthogonalLoop=1;jettySize=auto;html=1;exitX=1;exitY=0.5;exitDx=0;exitDy=0;exitPerimeter=0;entryX=0;entryY=0.5;entryDx=0;entryDy=0;" parent="1" source="Kvada0GT9Uv07JdplmVL-7" target="Kvada0GT9Uv07JdplmVL-10" edge="1">
          <mxGeometry relative="1" as="geometry" />
        </mxCell>
        <mxCell id="Kvada0GT9Uv07JdplmVL-7" value="Fill Form" style="strokeWidth=2;html=1;shape=mxgraph.flowchart.delay;whiteSpace=wrap;" parent="1" vertex="1">
          <mxGeometry x="120" y="50" width="100" height="60" as="geometry" />
        </mxCell>
        <mxCell id="Kvada0GT9Uv07JdplmVL-20" value="Closed" style="strokeWidth=2;html=1;shape=mxgraph.flowchart.delay;whiteSpace=wrap;rotation=0;" parent="1" vertex="1">
          <mxGeometry x="710" y="420" width="100" height="60" as="geometry" />
        </mxCell>
        <mxCell id="Kvada0GT9Uv07JdplmVL-23" value="Save" style="text;html=1;strokeColor=#000000;fillColor=#FFFFFF;align=center;verticalAlign=middle;whiteSpace=wrap;rounded=1;" parent="1" vertex="1">
          <mxGeometry x="220" y="150" width="40" height="20" as="geometry" />
        </mxCell>
        <mxCell id="Kvada0GT9Uv07JdplmVL-24" value="Complete" style="text;html=1;strokeColor=#000000;fillColor=#FFFFFF;align=center;verticalAlign=middle;whiteSpace=wrap;rounded=1;arcSize=25;" parent="1" vertex="1">
          <mxGeometry x="300" y="340" width="60" height="20" as="geometry" />
        </mxCell>
        <mxCell id="Kvada0GT9Uv07JdplmVL-30" value="&lt;span style=&quot;font-family: &amp;#34;open sans&amp;#34; , sans-serif ; text-align: left ; background-color: rgb(255 , 255 , 255)&quot;&gt;&lt;font style=&quot;font-size: 12px&quot;&gt;Request More Information&lt;/font&gt;&lt;/span&gt;" style="text;html=1;strokeColor=#000000;fillColor=#FFFFFF;align=center;verticalAlign=middle;whiteSpace=wrap;rounded=1;" parent="1" vertex="1">
          <mxGeometry x="387.5" y="340" width="165" height="20" as="geometry" />
        </mxCell>
        <mxCell id="Kvada0GT9Uv07JdplmVL-27" value="&lt;span style=&quot;font-family: &amp;#34;open sans&amp;#34; , sans-serif ; text-align: left ; background-color: rgb(255 , 255 , 255)&quot;&gt;&lt;font style=&quot;font-size: 12px&quot;&gt;Approve &amp;amp; Close&lt;/font&gt;&lt;/span&gt;" style="text;html=1;strokeColor=#000000;fillColor=#FFFFFF;align=center;verticalAlign=middle;whiteSpace=wrap;rounded=1;" parent="1" vertex="1">
          <mxGeometry x="570" y="440" width="100" height="20" as="geometry" />
        </mxCell>
        <mxCell id="Kvada0GT9Uv07JdplmVL-31" style="edgeStyle=orthogonalEdgeStyle;rounded=0;orthogonalLoop=1;jettySize=auto;html=1;exitX=1;exitY=0.5;exitDx=0;exitDy=0;entryX=0;entryY=0.5;entryDx=0;entryDy=0;entryPerimeter=0;" parent="1" source="Kvada0GT9Uv07JdplmVL-17" target="Kvada0GT9Uv07JdplmVL-27" edge="1">
          <mxGeometry relative="1" as="geometry">
            <mxPoint x="530" y="450" as="sourcePoint" />
            <mxPoint x="710" y="450" as="targetPoint" />
          </mxGeometry>
        </mxCell>
        <mxCell id="Kvada0GT9Uv07JdplmVL-32" value="&lt;font style=&quot;font-size: 18px&quot;&gt;Trade Compliance Action Plan Workflow&lt;/font&gt;" style="text;html=1;strokeColor=none;fillColor=none;align=center;verticalAlign=middle;whiteSpace=wrap;rounded=0;" parent="1" vertex="1">
          <mxGeometry x="40" width="760" height="40" as="geometry" />
        </mxCell>
        <mxCell id="Kvada0GT9Uv07JdplmVL-39" value="" style="edgeStyle=orthogonalEdgeStyle;rounded=0;orthogonalLoop=1;jettySize=auto;html=1;fontSize=14;exitX=0.5;exitY=1;exitDx=0;exitDy=0;entryX=0;entryY=0.5;entryDx=0;entryDy=0;" parent="1" source="Kvada0GT9Uv07JdplmVL-33" target="Kvada0GT9Uv07JdplmVL-38" edge="1">
          <mxGeometry relative="1" as="geometry" />
        </mxCell>
        <mxCell id="Kvada0GT9Uv07JdplmVL-33" value="&lt;p style=&quot;margin: 0px ; margin-top: 4px ; text-align: center ; text-decoration: underline&quot;&gt;&lt;b&gt;Object:Trade Compliance Interaction&lt;/b&gt;&lt;/p&gt;&lt;hr&gt;&lt;p style=&quot;margin: 0px ; margin-left: 8px&quot;&gt;Relation Field = Regulatory Finding&lt;br&gt;Type Helper = Reg. vs. Trade.&lt;/p&gt;" style="verticalAlign=top;align=left;overflow=fill;fontSize=12;fontFamily=Helvetica;html=1;rounded=1;strokeColor=#000000;fillColor=#FFFFFF;" parent="1" vertex="1">
          <mxGeometry x="55" y="680" width="230" height="90" as="geometry" />
        </mxCell>
        <mxCell id="Kvada0GT9Uv07JdplmVL-41" value="" style="edgeStyle=orthogonalEdgeStyle;rounded=0;orthogonalLoop=1;jettySize=auto;html=1;fontSize=14;entryX=0;entryY=0.5;entryDx=0;entryDy=0;" parent="1" source="Kvada0GT9Uv07JdplmVL-38" target="Kvada0GT9Uv07JdplmVL-40" edge="1">
          <mxGeometry relative="1" as="geometry" />
        </mxCell>
        <mxCell id="Kvada0GT9Uv07JdplmVL-38" value="&lt;p style=&quot;margin: 0px ; margin-top: 4px ; text-align: center ; text-decoration: underline&quot;&gt;&lt;b&gt;Object:Regulatory Finding&lt;/b&gt;&lt;/p&gt;&lt;hr&gt;&lt;p style=&quot;margin: 0px ; margin-left: 8px&quot;&gt;Relation Field = Corrective Action&lt;br&gt;&lt;/p&gt;" style="verticalAlign=top;align=left;overflow=fill;fontSize=12;fontFamily=Helvetica;html=1;rounded=1;strokeColor=#000000;fillColor=#FFFFFF;" parent="1" vertex="1">
          <mxGeometry x="285" y="805" width="230" height="70" as="geometry" />
        </mxCell>
        <mxCell id="Kvada0GT9Uv07JdplmVL-40" value="&lt;p style=&quot;margin: 0px ; margin-top: 4px ; text-align: center ; text-decoration: underline&quot;&gt;&lt;b&gt;Object:Corrective Action&lt;/b&gt;&lt;/p&gt;&lt;hr&gt;&lt;p style=&quot;margin: 0px ; margin-left: 8px&quot;&gt;Workflow:&lt;br&gt;&lt;/p&gt;&lt;p style=&quot;margin: 0px ; margin-left: 8px&quot;&gt;&lt;/p&gt;&lt;ul&gt;&lt;li&gt;Person Responsible&lt;/li&gt;&lt;li&gt;Reg Approver Role&lt;/li&gt;&lt;li&gt;Two Stage, Type Helper Field Determines Activity&lt;/li&gt;&lt;/ul&gt;&lt;p&gt;&lt;/p&gt;" style="verticalAlign=top;align=left;overflow=fill;fontSize=12;fontFamily=Helvetica;html=1;rounded=1;strokeColor=#000000;fillColor=#FFFFFF;whiteSpace=wrap;" parent="1" vertex="1">
          <mxGeometry x="515" y="900" width="255" height="140" as="geometry" />
        </mxCell>
        <mxCell id="Kvada0GT9Uv07JdplmVL-35" value="Application Container: Regulatory Interactions&lt;br&gt;Display Container: Trade Compliance Interactions" style="text;strokeColor=none;fillColor=none;align=left;verticalAlign=middle;whiteSpace=wrap;rounded=0;labelPosition=center;verticalLabelPosition=middle;fontSize=14;labelBorderColor=#000000;html=1;" parent="1" vertex="1">
          <mxGeometry x="268" y="600" width="315" height="70" as="geometry" />
        </mxCell>
      </root>
    </mxGraphModel>
  </diagram>
</mxfile>
